<svg xmlns="http://www.w3.org/2000/svg" viewBox="0 0 470.48 131.62"><defs><style>.cls-1{fill:#ffffff;}</style></defs><g id="Layer_2" data-name="Layer 2"><g id="Layer_1-2" data-name="Layer 1"><path class="cls-1" d="M49.49,40a39.92,39.92,0,0,0-7.3-3.54A37.92,37.92,0,0,0,29.63,34.2h-.7a40.5,40.5,0,0,0-7.38,1,37.14,37.14,0,0,0-9.1,3.35,36.7,36.7,0,0,0-3.43,2,12.85,12.85,0,0,0-1.29.94l-.35.29A15.41,15.41,0,0,0,4.52,45a13.29,13.29,0,0,0-1.06,1.71A18.81,18.81,0,0,0,2,49.91,33.55,33.55,0,0,0,.29,57.8,55.82,55.82,0,0,0,0,63.62V103.2H17.76V60.07a3.44,3.44,0,0,1,0-.56c.09-3.78,1.27-6.55,3.53-8.33a13,13,0,0,1,1.93-1.26,12.68,12.68,0,0,1,6.19-1.53,13.36,13.36,0,0,1,8.24,2.79c2.46,1.87,3.69,4.82,3.69,8.89V94.58A8.24,8.24,0,0,0,50,103.2h8.87V63.62Q58.87,45.86,49.49,40Z"/><path class="cls-1" d="M116.78,43.32q-8.36-9.14-23.59-9.13-14.46,0-22.58,9.38-7.89,9.13-7.88,25.37,0,17,8.12,26.14,8.13,9.4,22.6,9.4,11.92,0,19.79-5.85c5.24-3.7,8.78-9.13,10.65-16.24H111.21a7.63,7.63,0,0,0-4.71,1.27,5.46,5.46,0,0,0-1.89,2c-.51.51-1,1-1.41,1.4a3.48,3.48,0,0,1-1.38.89,14.43,14.43,0,0,1-7.36,1.78q-6.6,0-9.9-4.07c-2.37-2.53-3.63-6.43-3.81-11.67h43.91a4.53,4.53,0,0,0,.24-1.78V69.45Q124.9,52.71,116.78,43.32Zm-36,19.28c.18-4.4,1.44-7.77,3.81-10.14a12.33,12.33,0,0,1,9.13-3.55c4.07,0,7.2,1.17,9.4,3.55q3,3.3,3.55,10.14Z"/><path class="cls-1" d="M146.28,2.4A8.54,8.54,0,0,0,140.19,0h-9.14V103.2h17.76V9.81C148.81,7.45,148,4,146.28,2.4Z"/><path class="cls-1" d="M170.45,2.4A8.56,8.56,0,0,0,164.36,0h-9.13V103.2H173V9.81C173,7.45,172.13,4,170.45,2.4Z"/><path class="cls-1" d="M230.13,40.79a41.33,41.33,0,0,0-22.58-6.6q-16,0-23.21,9.77t-7.23,25.49q0,13.45,5.45,21.7t13.07,11.29A25.12,25.12,0,0,0,211,103.71a19.39,19.39,0,0,0,12.31-8.89v4.33c-.35,5.4-1.65,9.47-3.94,12.17a13.75,13.75,0,0,1-7.61,5,14.17,14.17,0,0,1-14.59-6.47H178.63q5.58,21.81,28.92,21.81a42,42,0,0,0,22.58-6.47q10.41-6.48,10.41-24.23V65.14Q240.54,47.4,230.13,40.79Zm-7.35,35.14q-1,6-3.3,8.75-4.81,6.6-15,4.7T194.37,70a33.08,33.08,0,0,1,3-14.46c2-4.23,5.92-6.34,11.66-6.34,4.23,0,7.46,1.52,9.64,4.57a23.5,23.5,0,0,1,4.2,10.39A36.88,36.88,0,0,1,222.78,75.93Z"/><path class="cls-1" d="M281.71,35.71a49.87,49.87,0,0,0-13.32,1.78,31.59,31.59,0,0,0-11.29,5.57,27.47,27.47,0,0,0-8,10.79q-2.93,6.72-2.92,16.63V103.2H264V68.44q0-7.61,3.56-11.16c2.36-2.38,6-3.55,10.9-3.55h5.84v-18Z"/><path class="cls-1" d="M336.84,39q-7.12-4.82-21.32-4.82-12.7,0-19.54,5.83A19.62,19.62,0,0,0,288.87,53h17a7,7,0,0,1,4.05-3.8,18.73,18.73,0,0,1,6.36-1,25.82,25.82,0,0,1,7.22,1.15c2.62.75,3.94,2.4,3.94,5q0,5.07-11.16,6.58c-1.54.18-2.88.39-4.07.64a14.59,14.59,0,0,1-3,.39q-9.66,1.51-15.86,6.08t-6.21,15.23q0,11.41,6.84,16.37a26.56,26.56,0,0,0,16,5,101.87,101.87,0,0,0,10.54-.64,31.09,31.09,0,0,0,11.29-3.43,22.42,22.42,0,0,0,8.76-8.25q3.66-5.72,3.67-15.85V53.22A16.33,16.33,0,0,0,336.84,39Zm-9.15,36.53c0,4.74-1.34,8.47-4.05,11.18s-6.43,4-11.16,4q-4.32,0-6.6-2a8.25,8.25,0,0,1-2.29-6.09,10.45,10.45,0,0,1,1.78-5.59,15.22,15.22,0,0,1,6.6-3.3l5.84-1.26a47,47,0,0,0,9.88-3.3Z"/><path class="cls-1" d="M440.16,40a38.13,38.13,0,0,0-20.55-5.83,50.57,50.57,0,0,0-10.79,1.65,22.35,22.35,0,0,0-9,4.69,24.11,24.11,0,0,0-10.15-5.08,51.64,51.64,0,0,0-11.42-1.26,39.2,39.2,0,0,0-19.91,6.34q-9,5.84-9,23.09V103.2h17.76V60.07c0-4.07,1.18-7,3.55-8.89a12.86,12.86,0,0,1,8.12-2.79A13.41,13.41,0,0,1,387,51.18c2.45,1.87,3.68,4.82,3.68,8.89V103.2H408.2V60.07c0-4.07,1.22-7,3.68-8.89a13.56,13.56,0,0,1,16.48,0C430.83,53.05,432,56,432,60.07V94.58a8.27,8.27,0,0,0,8.63,8.62h8.89V63.62Q449.56,45.86,440.16,40Z"/><path class="cls-1" d="M254.83,37.74c2.5-8,1.14-13.72.27-16.36C250.91,8.73,235.61,0,217.07.66c.52,17.31,8.27,31.77,20.44,36.66a26.48,26.48,0,0,0,12.11,1.73,77.48,77.48,0,0,0-7.38-13c-5.14-7.33-9.72-11.13-9.32-11.57s7.44,4,13.5,10.84A57.57,57.57,0,0,1,254.83,37.74Z"/><path class="cls-1" d="M462.13,37.35a2.7,2.7,0,0,0,.55-.24A2.76,2.76,0,0,0,463.82,36a3.44,3.44,0,0,0,.41-1.69,3.55,3.55,0,0,0-.4-1.69,2.88,2.88,0,0,0-1.14-1.13,3.54,3.54,0,0,0-1.69-.39h-4.42V42.22h1.56V37.51h2.33l2.37,4.71h1.86Zm-4-4.79h2.92a1.4,1.4,0,0,1,.79.22,1.38,1.38,0,0,1,.53.61,2.13,2.13,0,0,1,.19.9,2.17,2.17,0,0,1-.19.91,1.44,1.44,0,0,1-.53.61,1.51,1.51,0,0,1-.79.21h-2.92Z"/><path class="cls-1" d="M460.11,47a10.37,10.37,0,1,1,10.37-10.36A10.37,10.37,0,0,1,460.11,47Zm0-19.79a9.43,9.43,0,1,0,9.43,9.43A9.44,9.44,0,0,0,460.11,27.22Z"/></g></g></svg>